<svg version="1.1" id="Layer_1" xmlns="http://www.w3.org/2000/svg" xmlns:xlink="http://www.w3.org/1999/xlink" x="0px" y="0px"
	 width="100%" viewBox="0 0 100 100" enable-background="new 0 0 100 100" xml:space="preserve">
<path fill="#000000" opacity="1.000000" stroke="none" 
	d="
M101.000000,40.000000 
	C101.000000,60.666660 101.000000,80.833321 101.000000,100.999985 
	C67.666679,100.999992 34.333366,100.999992 1.000036,101.000000 
	C1.000024,67.666695 1.000024,34.333385 1.000012,1.000058 
	C34.333298,1.000039 67.666595,1.000039 100.999947,1.000019 
	C101.000000,13.833333 101.000000,26.666666 101.000000,40.000000 
M6.357542,64.882019 
	C15.709262,89.454559 35.076626,100.951897 59.720852,96.616959 
	C87.203583,91.782738 103.371346,65.706230 95.233597,36.705765 
	C90.480888,19.768564 71.229744,4.202609 50.130131,4.578171 
	C31.053581,4.917724 11.145591,19.098024 6.918392,36.941257 
	C4.872103,45.578762 6.214882,55.019161 6.357542,64.882019 
z"/>
<path fill="#FFFFFF" opacity="1.000000" stroke="none" 
	d="
M6.190392,64.489029 
	C6.214882,55.019161 4.872103,45.578762 6.918392,36.941257 
	C11.145591,19.098024 31.053581,4.917724 50.130131,4.578171 
	C71.229744,4.202609 90.480888,19.768564 95.233597,36.705765 
	C103.371346,65.706230 87.203583,91.782738 59.720852,96.616959 
	C35.076626,100.951897 15.709262,89.454559 6.190392,64.489029 
M90.052277,38.459366 
	C89.134727,35.909729 88.594841,33.136627 87.239502,30.846031 
	C76.990204,13.524221 58.170700,5.755393 37.869343,11.914799 
	C17.478241,18.101435 4.573011,41.795158 11.888885,63.783829 
	C19.179943,85.697906 39.328568,95.707474 59.006069,91.587440 
	C84.194511,86.313538 96.855865,63.783485 90.052277,38.459366 
z"/>
<path fill="#000000" opacity="1.000000" stroke="none" 
	d="
M90.330917,38.774391 
	C96.855865,63.783485 84.194511,86.313538 59.006069,91.587440 
	C39.328568,95.707474 19.179943,85.697906 11.888885,63.783829 
	C4.573011,41.795158 17.478241,18.101435 37.869343,11.914799 
	C58.170700,5.755393 76.990204,13.524221 87.239502,30.846031 
	C88.594841,33.136627 89.134727,35.909729 90.330917,38.774391 
M19.547409,42.039879 
	C18.504200,42.430958 17.336666,42.642109 16.447670,43.256371 
	C15.194761,44.122089 13.264781,45.256519 13.228457,46.330322 
	C13.178799,47.798313 14.303489,49.710094 15.514094,50.736732 
	C18.492704,53.262688 20.768391,59.637569 18.555891,62.781738 
	C14.831820,68.074013 18.229496,71.325882 20.617243,75.237503 
	C29.059183,69.618095 21.711329,62.484264 23.318464,55.769184 
	C24.722080,57.245144 26.892342,58.508484 26.817554,59.620880 
	C26.447962,65.118095 30.200632,65.719048 33.943264,65.940041 
	C42.819393,66.464149 51.720249,67.011452 60.599606,66.862694 
	C65.434761,66.781693 70.246445,65.299004 75.359268,64.397263 
	C74.056030,59.533310 75.958923,57.515671 79.232788,55.877773 
	C81.943993,54.521366 84.316315,52.468082 86.783989,50.649227 
	C90.153275,48.165829 89.912834,45.325256 86.164482,43.632618 
	C77.124466,39.550438 68.135536,35.337772 58.962135,31.577496 
	C55.650223,30.219906 51.317287,28.483955 48.405907,29.544371 
	C38.811440,33.038975 29.654230,37.734074 19.547409,42.039879 
z"/>
<path fill="#FFFFFF" opacity="1.000000" stroke="none" 
	d="
M19.938259,42.004021 
	C29.654230,37.734074 38.811440,33.038975 48.405907,29.544371 
	C51.317287,28.483955 55.650223,30.219906 58.962135,31.577496 
	C68.135536,35.337772 77.124466,39.550438 86.164482,43.632618 
	C89.912834,45.325256 90.153275,48.165829 86.783989,50.649227 
	C84.316315,52.468082 81.943993,54.521366 79.232788,55.877773 
	C75.958923,57.515671 74.056030,59.533310 75.359268,64.397263 
	C70.246445,65.299004 65.434761,66.781693 60.599606,66.862694 
	C51.720249,67.011452 42.819393,66.464149 33.943264,65.940041 
	C30.200632,65.719048 26.447962,65.118095 26.817554,59.620880 
	C26.892342,58.508484 24.722080,57.245144 23.318464,55.769184 
	C21.711329,62.484264 29.059183,69.618095 20.617243,75.237503 
	C18.229496,71.325882 14.831820,68.074013 18.555891,62.781738 
	C20.768391,59.637569 18.492704,53.262688 15.514094,50.736732 
	C14.303489,49.710094 13.178799,47.798313 13.228457,46.330322 
	C13.264781,45.256519 15.194761,44.122089 16.447670,43.256371 
	C17.336666,42.642109 18.504200,42.430958 19.938259,42.004021 
M47.516365,45.000000 
	C53.014027,45.000023 58.514023,44.898926 64.008751,45.025955 
	C70.706543,45.180798 74.618874,47.509548 75.586693,51.933083 
	C77.713875,50.378197 79.729881,48.904575 81.550125,47.574051 
	C73.196724,43.768734 64.814857,40.120930 56.598133,36.132900 
	C52.698639,34.240261 49.265728,34.259068 45.369663,36.152546 
	C37.149609,40.147484 28.759632,43.792770 20.371597,47.612377 
	C22.515001,49.083511 24.541639,50.474503 25.765354,51.314404 
	C27.366364,49.569981 28.354191,47.468269 29.689518,47.217587 
	C35.244343,46.174763 40.903877,45.689701 47.516365,45.000000 
M47.522919,55.000000 
	C55.321308,55.000000 63.119698,55.000000 70.968552,55.000000 
	C71.337692,52.612755 70.591743,51.352146 67.379692,50.876091 
	C56.417126,49.251347 45.556149,49.253368 34.593132,50.882069 
	C31.031244,51.411236 30.616358,52.879135 31.268602,55.725380 
	C36.465931,55.478401 41.499569,55.239201 47.522919,55.000000 
M53.002575,59.977070 
	C47.670704,59.977070 42.338833,59.977070 37.006962,59.977070 
	C37.037754,60.618736 37.068546,61.260403 37.099339,61.902069 
	C46.375278,61.902069 55.651218,61.902069 64.927162,61.902069 
	C64.932663,61.267513 64.938164,60.632961 64.943672,59.998405 
	C61.267700,59.998405 57.591728,59.998405 53.002575,59.977070 
z"/>
<path fill="#000000" opacity="1.000000" stroke="none" 
	d="
M47.020679,45.000000 
	C40.903877,45.689701 35.244343,46.174763 29.689518,47.217587 
	C28.354191,47.468269 27.366364,49.569981 25.765354,51.314404 
	C24.541639,50.474503 22.515001,49.083511 20.371597,47.612377 
	C28.759632,43.792770 37.149609,40.147484 45.369663,36.152546 
	C49.265728,34.259068 52.698639,34.240261 56.598133,36.132900 
	C64.814857,40.120930 73.196724,43.768734 81.550125,47.574051 
	C79.729881,48.904575 77.713875,50.378197 75.586693,51.933083 
	C74.618874,47.509548 70.706543,45.180798 64.008751,45.025955 
	C58.514023,44.898926 53.014027,45.000023 47.020679,45.000000 
z"/>
<path fill="#000000" opacity="1.000000" stroke="none" 
	d="
M47.028065,55.000000 
	C41.499569,55.239201 36.465931,55.478401 31.268602,55.725380 
	C30.616358,52.879135 31.031244,51.411236 34.593132,50.882069 
	C45.556149,49.253368 56.417126,49.251347 67.379692,50.876091 
	C70.591743,51.352146 71.337692,52.612755 70.968552,55.000000 
	C63.119698,55.000000 55.321308,55.000000 47.028065,55.000000 
z"/>
<path fill="#000000" opacity="1.000000" stroke="none" 
	d="
M53.459167,59.987740 
	C57.591728,59.998405 61.267700,59.998405 64.943672,59.998405 
	C64.938164,60.632961 64.932663,61.267513 64.927162,61.902069 
	C55.651218,61.902069 46.375278,61.902069 37.099339,61.902069 
	C37.068546,61.260403 37.037754,60.618736 37.006962,59.977070 
	C42.338833,59.977070 47.670704,59.977070 53.459167,59.987740 
z"/>
</svg>